# xmcd
#
# Track frame offsets: 
#        187
#        24497
#        44315
#        68625
#
# Disc length: 1178 seconds
#
# Revision: 1
# Processed by: cddbd v1.5.2PL0 Copyright (c) Steve Scherf et al.
# Submitted via: ExactAudioCopy v1.0b4
#
DISCID=2a049804
DTITLE=Romantic Mode - Runner
DYEAR=1998
DGENRE=Pop
TTITLE0=Runner
TTITLE1=ガラスの愛
TTITLE2=Runnre(off vocal version)
TTITLE3=ガラスの愛(off vocal varsion)
EXTD=
EXTT0=
EXTT1=
EXTT2=
EXTT3=
PLAYORDER=
